{
	"asset":{
		"generator":"Khronos glTF Blender I/O v4.0.43",
		"version":"2.0"
	},
	"extensionsUsed":[
		"KHR_materials_unlit"
	],
	"scene":0,
	"scenes":[
		{
			"name":"Scene",
			"nodes":[
				0,
				1,
				2
			]
		}
	],
	"nodes":[
		{
			"mesh":0,
			"name":"Ocean_Mesh"
		},
		{
			"mesh":1,
			"name":"everspeete_mesh"
		},
		{
			"mesh":2,
			"name":"T_mesh"
		}
	],
	"materials":[
		{
			"doubleSided":true,
			"extensions":{
				"KHR_materials_unlit":{}
			},
			"name":"Toon Shader",
			"pbrMetallicRoughness":{
				"metallicFactor":0,
				"roughnessFactor":0.9
			}
		},
		{
			"doubleSided":true,
			"name":"ChromeType",
			"normalTexture":{
				"index":0,
				"texCoord":1
			},
			"pbrMetallicRoughness":{
				"baseColorFactor":[
					0.9562554359436035,
					1,
					0.9136480689048767,
					1
				],
				"metallicRoughnessTexture":{
					"index":1,
					"texCoord":1
				}
			}
		}
	],
	"meshes":[
		{
			"name":"ocean_curve",
			"primitives":[
				{
					"attributes":{
						"POSITION":0,
						"NORMAL":1,
						"TEXCOORD_0":2
					},
					"indices":3,
					"material":0
				}
			]
		},
		{
			"name":"everspeete_curve",
			"primitives":[
				{
					"attributes":{
						"POSITION":4,
						"NORMAL":5,
						"TEXCOORD_0":6,
						"TEXCOORD_1":7
					},
					"indices":8,
					"material":1
				}
			]
		},
		{
			"name":"T_curve",
			"primitives":[
				{
					"attributes":{
						"POSITION":9,
						"NORMAL":10,
						"TEXCOORD_0":11
					},
					"indices":12,
					"material":0
				}
			]
		}
	],
	"textures":[
		{
			"sampler":0,
			"source":0
		},
		{
			"sampler":0,
			"source":1
		}
	],
	"images":[
		{
			"mimeType":"image/jpeg",
			"name":"scratch_texture",
			"uri":"scratch_texture.jpg"
		},
		{
			"mimeType":"image/png",
			"name":"scratch_texture",
			"uri":"scratch_texture.png"
		}
	],
	"accessors":[
		{
			"bufferView":0,
			"componentType":5126,
			"count":1104,
			"max":[
				0.46558427810668945,
				0.8384079933166504,
				-0.004748880863189697
			],
			"min":[
				-1.0682861804962158,
				0.601679801940918,
				-0.05945777893066406
			],
			"type":"VEC3"
		},
		{
			"bufferView":1,
			"componentType":5126,
			"count":1104,
			"type":"VEC3"
		},
		{
			"bufferView":2,
			"componentType":5126,
			"count":1104,
			"type":"VEC2"
		},
		{
			"bufferView":3,
			"componentType":5123,
			"count":3093,
			"type":"SCALAR"
		},
		{
			"bufferView":4,
			"componentType":5126,
			"count":28790,
			"max":[
				1.1754472255706787,
				0.8101580739021301,
				0.04858976602554321
			],
			"min":[
				-0.08608774840831757,
				0.192025825381279,
				-0.006576746702194214
			],
			"type":"VEC3"
		},
		{
			"bufferView":5,
			"componentType":5126,
			"count":28790,
			"type":"VEC3"
		},
		{
			"bufferView":6,
			"componentType":5126,
			"count":28790,
			"type":"VEC2"
		},
		{
			"bufferView":7,
			"componentType":5126,
			"count":28790,
			"type":"VEC2"
		},
		{
			"bufferView":8,
			"componentType":5123,
			"count":154113,
			"type":"SCALAR"
		},
		{
			"bufferView":9,
			"componentType":5126,
			"count":461,
			"max":[
				1.2027442455291748,
				0.891289472579956,
				-0.010555922985076904
			],
			"min":[
				0.771921694278717,
				0.19958944618701935,
				-0.024678081274032593
			],
			"type":"VEC3"
		},
		{
			"bufferView":10,
			"componentType":5126,
			"count":461,
			"type":"VEC3"
		},
		{
			"bufferView":11,
			"componentType":5126,
			"count":461,
			"type":"VEC2"
		},
		{
			"bufferView":12,
			"componentType":5123,
			"count":2325,
			"type":"SCALAR"
		}
	],
	"bufferViews":[
		{
			"buffer":0,
			"byteLength":13248,
			"byteOffset":0,
			"target":34962
		},
		{
			"buffer":0,
			"byteLength":13248,
			"byteOffset":13248,
			"target":34962
		},
		{
			"buffer":0,
			"byteLength":8832,
			"byteOffset":26496,
			"target":34962
		},
		{
			"buffer":0,
			"byteLength":6186,
			"byteOffset":35328,
			"target":34963
		},
		{
			"buffer":0,
			"byteLength":345480,
			"byteOffset":41516,
			"target":34962
		},
		{
			"buffer":0,
			"byteLength":345480,
			"byteOffset":386996,
			"target":34962
		},
		{
			"buffer":0,
			"byteLength":230320,
			"byteOffset":732476,
			"target":34962
		},
		{
			"buffer":0,
			"byteLength":230320,
			"byteOffset":962796,
			"target":34962
		},
		{
			"buffer":0,
			"byteLength":308226,
			"byteOffset":1193116,
			"target":34963
		},
		{
			"buffer":0,
			"byteLength":5532,
			"byteOffset":1501344,
			"target":34962
		},
		{
			"buffer":0,
			"byteLength":5532,
			"byteOffset":1506876,
			"target":34962
		},
		{
			"buffer":0,
			"byteLength":3688,
			"byteOffset":1512408,
			"target":34962
		},
		{
			"buffer":0,
			"byteLength":4650,
			"byteOffset":1516096,
			"target":34963
		}
	],
	"samplers":[
		{
			"magFilter":9729,
			"minFilter":9987,
			"wrapS":33071,
			"wrapT":33071
		}
	],
	"buffers":[
		{
			"byteLength":1520748,
			"uri":"ocean_logo.bin"
		}
	]
}
