<?xml version="1.0" encoding="UTF-8"?><svg id="Favicon" xmlns="http://www.w3.org/2000/svg" viewBox="0 0 272 272"><defs><style>.cls-1{fill:#b263ae;}</style></defs><path class="cls-1" d="M138.85,1q-4.97,132.33-85.99,135.48,81.03,3.15,85.75,134.52,5.51-131.37,86.53-134.52-81.81-3.15-86.29-135.48Z"/><path d="M69.83,37c-4.51,0-8.78,2.06-11.58,5.6L9.28,104.53c-7.65,9.68-.76,23.91,11.58,23.91h93.15c6.52,0,12.27-4.28,14.14-10.52l24.24-80.92h-82.56ZM98.72,92.17h-39.76l17.89-24.35h33.8l-11.93,24.35Z"/><path d="M197.78,192.62h45.24l16.98-45.78h-114.96l36.77,84.94c1.98,4.04,6.29,6.63,11.04,6.63h36.27l11.77-37.82-43.1.22c-2.42.01-4.39-1.82-4.39-4.09h0c0-2.26,1.95-4.09,4.37-4.09ZM193.14,166.75h31.01l-2.16,5.89c-1.4,3.8-5.21,6.35-9.5,6.35h-14.86l-4.48-12.24Z"/></svg>